<svg xmlns="http://www.w3.org/2000/svg" viewBox="41.1 1162.3 611.8 320" enable-background="new 41.1 1162.3 611.8 320"><path fill="#fff" d="M313.9 1329.3c-7.2 7.5-16.1 15.9-23.4 23.5.1 1.1.3 2.1.6 3.1 2.9 11.4 7 22.3 7.6 33.9.8 13.2-2.5 25.3-11.4 35.5-5.1 5.8-12 9.2-19.3 9.3-11.7.3-21.7-7.5-24.3-17.9-2.1-8.2-1.3-16.3.6-24.2 2.8-12.2 8.2-23.2 16.4-32.8 3.1-3.5 6-7 9.2-10.4l-5.3-19.1c-3.1 2.4-5.6 4.9-7.8 7.5-7.5 8.6-15 17.4-22.7 26-2.9 3.3-5.8 6.5-8.9 9.7 0 3.2 1.3 7.4 2.2 10.3 2.6 9 3.5 16.8 4.2 26 .3 2.9.4 5.8.4 8.8.3 17.2-2.9 33.7-12.7 48.4-9 13.9-27.3 18.6-40.3 13.2-4.6-1.9-8.3-4.7-11-8.9-6.5-10.3-7.8-21.6-5-33.1 3.5-14.7 10.8-27.5 20.4-39.1 6.3-7.5 12.8-14.9 19.7-21.8 4.9-4.9 5.1-3.3 3.2-11.5-1.3-5.3-2.8-12-4-17.1-1 1.5-1.4 2.1-1.7 2.8-.7 1.5-1.5 3.1-2.2 4.5-8.1 17.5-17.8 34.1-28.8 49.9-6.4 9-10.3 14.3-18.1 23.2l-13.3 14.7c-8.8 8.3-13.1 14.3-25.7 23.6-7.9 5.8-14.7 10.6-23.6 11.3-13.5 1.1-25.6-4.2-33.8-14.5-8.1-10.4-11.5-22.5-13.1-35.5-1.5-12.5-.8-16 0-28.5.4-4.6 1.5-13.2 3.1-22.5 1.5-8.6 5.4-19.3 8.2-27.7 6.8-18.4 13.8-32.3 23.5-49.1l9.7-16.1c2.1-3.3 4.4-6.7 6.8-9.7 4-5.3 8.5-10.3 12.4-15.7 4.6-5.7 9.2-10.3 14-15.2 4.6-4.6 7-7 12-11 6-4.7 14.3-10 21.8-11.3 10.7-1.8 20 1.9 27.1 10.8 4.6 6.1 5.7 9.9 6.4 17.5.6 6.5-1 14.9-2.6 21.1-2.5 9.3-4.7 16.6-9 25.2-3.9 7.7-8.3 15-13.8 21.7-1.1 1.5-2.5 2.9-3.9 4.2-3.3 2.9-8.3 2.6-11.4-.6-.7-.7-1.4-1.8-1.3-3.1.1-1.8.4-3.5 1.1-5.1 1.1-2.9 2.4-5.8 3.8-8.6 5.3-11 9.7-22.3 13.3-33.8 1.9-6.3 3.5-12.7 1.7-19.2-1.9-7.1-7.5-11.1-14.6-9-5.6 1.7-11.8 6-16 9.9-5.8 5.7-10 10.2-15.6 17.4-1 1.1-1.9 2.2-2.6 3.5-13.3 19.3-25.3 39.5-36.3 60.1-3.9 7.2-6.7 13.1-10 21-1.1 2.9-3.8 8.8-5.8 15.4-4.2 13.5-5.1 23.1-5.1 37.4 0 13.1 1.1 28.1 4.9 37.8 3.1 10.6 16 17.2 26.3 14.2 5.8-1.8 11.4-4.3 16.1-8.1 10.7-8.5 21-17.2 29.3-28.2 7.1-9.3 14.3-18.5 20.6-28.4 12.2-18.8 23.8-38 35.2-57.2 1.4-2.4 2.6-4.7 3.8-7.2 5.3-10.4 12.2-20 17.9-30.2 1.9-3.3 4.6-6.5 7.8-8.6 4.6-3.1 10-.4 13.5 2.1 1.3 1 2.2 3.1 1.9 4.6-.3 1.7-.7 2.6-1.5 4-1.8 3.3-3.8 6.4-5.8 9.6-2.2 3.5-4.9 6.8-7 10.4-5.3 9-6.1 18.5-3.1 28.4.7 2.2 1.5 4.3 2.5 7 1.5-1.4 2.9-2.4 4-3.5 6.7-6.7 12.5-14 18.4-21.4 4.6-5.7 9.2-11.4 14.2-16.8 5.7-6 10-12.8 14.2-19.9 2.4-4.2 4.7-8.3 7.1-12.7.4-.7.8-1.5 1.3-2.1 4.2-6 11.3-6.7 16.8.3.7.8.8 2.4.7 3.6 0 2.8-2.5 5.8-4 8.1-1.9 2.9-2.9 4.7-5 8.5-3.2 6.1-5.3 10-7.8 15.3-1.5 3.5-.7 7.7.4 11.4.7 2.4 1.5 5.4 2.8 8.6 3.1-2.9 5.8-6 8.2-8.2 5.7-5.6 11.4-11.1 17.2-16.6 8.8-8.1 15.6-17.4 21-28 2.2-4.5 4.4-8.1 6.8-12.7 4.2-7.2 7.6-10.8 12.7-14.6 8.5-6.3 18.1-3.9 24.3.7 1.5 1.1 2.9 2.4 3.9 3.9 2.6 4.2 3.3 9 3.2 13.9-.4 10.9-2.8 18.9-7.2 28.8-3.1 6.8-8.6 6.8-13.6 2.4-1.3-1.1-1.7-2.5-1.4-3.9.4-1.9 1.1-4 1.9-5.8 1.9-4.2 3.2-8.6 3.8-13.2.4-2.8 0-5.4-1.4-7.9-1.3-2.4-6.5-3.8-8.9-2.6-1.8.7-3.6 2.2-4.9 3.5-3.9 4-7 12.8-8.8 17.9-4.4 11.7-5.8 19.3-9.3 32.7-1.9 7-2.5 14-2.2 21.1.4 7.4 7.6 12.5 14.9 11.1 3.8-.7 7.1-2.2 10.2-4.6 7.5-5.7 14.5-12 20.4-19.5 3.8-4.7 13.6-16.3 13.6-16.3s-.1-.6-.3-2.5c-.4-9.9 2.2-18.1 5.1-27.1 1.5-4.7 3.5-10.4 5.6-15 7.6-14.7 15.7-21 22.9-25.5 3.5-2.2 7.5-2.8 11.4-2.8 1.9 0 4.3.4 6 1.5 2.6 1.8 5.3 2.9 8.6 3.2 3.8.4 7 2.4 9.6 5.6 4.7 6 7 11.7 6.3 19.3-.1 1 0 1.9 0 3.6 2.1-1.4 3.8-2.2 5-3.5 7.6-7.1 16.1-13.4 22.9-21.3 2.1-2.4 4.4-4.5 6.8-6.5 1.3-1.1 2.6-2.1 4.2-2.9 5.3-2.6 11.1.3 11.7 6.1.4 2.2-1.9 7.4-2.9 10.3 2.5-2.2 7.5-6.4 9.2-7.9 5-4.9 10.7-8.8 16.8-12.1 2.8-1.5 5.8-2.2 9-2.2 4.7 0 7.8 2.5 9 7.1 1.1 4.2.4 8.3-.8 12.4-1 3.3-2.2 6.7-3.5 10l-8.3 22.1c-.6 1.5-3.6 12.2-4.3 15-.8 4.5-1.3 5.3-1.9 9.7-.4 2.2-1.3 5 .3 6.4 1.4 1.1 3.3.4 4.9-.6 1.4-1 2.8-1.9 3.9-3.1 4-3.9 8.1-7.9 12.1-12 2.2-2.2 5.7-5.8 5.7-5.8s4.3-18.8 8.8-33.8c3.1-10.2 5.7-17.4 10.3-27.7 2.2-5.1 10.4-20.6 13.2-25.5 8.9-15.9 18.4-29.5 31.1-43.1 2.9-3.1 6.1-6.4 10.2-7.8 1.5-.6 4-.8 5.7-1 5.3 0 8.5 3.5 9.6 7.8 1 3.8.1 8.2-.6 12-2.4 12-4.2 19.6-8.5 30.9-4.9 12.8-17.4 32.8-27 43-7.8 8.2-9.2 10.3-17.4 17.9-1.5 1.4-3.1 2.9-4.7 4.5 3.8 2.2 7.1 3.9 9.9 6.4 2.6 2.5 5.4 5.6 7.2 9.2 4.6-2.5 9-5.3 12.7-8.9 2.6-2.6 4.9-5.8 7.2-8.6 2.1-2.4 4.2-4.7 6.5-6.8 2.2-1.9 4.6-1.7 6.8.1 4.4 3.3 3.6 8.3 1.7 12.7-1.3 2.8-2.8 5.6-4.7 8.1-3.6 4.7-7.8 8.5-12.8 12-4.6 3.1-8.5 5.7-13.5 7.9-1.8 1-2.9 1.4-2.9 1.4s-1.1 10-1.3 13.5c-1.3 19.8-8.1 39.9-17 57.4-4.3 8.3-7.2 14.3-12.9 22-1.5 1.9-3.2 3.9-5 5.6-7.1 7-17.9 3.2-21.1-5-1.5-4-2.8-8.8-3.1-13.1-.6-8.1-.7-15.3-.4-23.5.1-5.4 1-10.9 1.5-16.3 1-9.2 2.5-19.6 3.6-29.4-1.3 1.1-2.2 2.2-3.8 3.9-2.6 2.6-3.9 3.8-7.2 6.5-2.9 2.2-5.4 3.6-8.5 4.9-5.8 2.5-13.3.7-16.5-7-1.5-3.9-2.2-8.1-1.7-12.4 1.9-13.1 5.4-25.7 10.6-38 1.5-3.5 2.9-7 4.2-10.4.6-1.4 1-2.8 1.1-4.2.4-3.2-1.1-4.5-4-3.3-1.4.6-2.6 1.3-3.8 2.1-7.2 4.7-21.7 16.7-21.7 16.7s-1.4 3.6-1.9 4.9c-5.7 12.4-9.3 23-13.6 36.2-1.7 5.1-3.5 10.3-5.6 15.3-2.2 5.3-6.7 7-11.8 4.6-2.8-1.3-4.7-2.5-4-5.7 1.3-5.4 2.8-10.2 5.1-16.1 5.4-13.2 9.7-25 14-37.4.4-1.3 1.5-4.9 1.9-6.8-2.6 2.4-5.7 5.1-7.4 7-6.8 7.5-14.5 13.9-24.1 17.8-1.7.7-2.6 1.8-3.3 3.5-1.3 3.3-2.5 6.7-3.9 9.9-4 10.3-10.2 19.2-17.5 27.3-4.6 4.9-10.2 8.6-16.7 10.8-7.4 2.5-13.9 1.3-19.7-4.2-2.9-2.8-5-5.7-6.8-10.3-1.3 1.1-2.5 2.2-3.3 2.9-9.7 10-19.7 19.9-30.5 29.1-2.2 1.9-4.7 3.5-7.2 5-9.5 6-22.2 3.2-30.3-4.5-4-3.9-5.4-10.8-6.1-16.1-.8-6.3-.4-10.9.6-17.2.7-3.5 1.1-7.7 1.7-11.1l-1.3 2.9zm-101.5 58.3c-1.9 2.1-3.5 3.8-4.3 4.9-2.6 3.2-5.3 6.5-8.1 9.5-4.9 5.3-8.8 11.1-12.7 17-7.6 11.7-9.5 24.3-6.3 37.7l.3 1.3c2.2 7.8 7.9 10.3 15.7 7.5 5.3-1.8 9.5-5.6 12.2-10.3 4.2-7 7.2-17.8 7.4-25.9.6-9.5 0-10.8-.8-23.1-.2-1.9-2-13.9-3.4-18.6zm226.2-86.2c-9-5-13.2-11.8-12.8-21.1.1-3.5.4-6.4 1.3-10.3-1.5 1.1-2.8 2.4-3.8 3.3l-4.4 5c-9.5 11.1-13.8 23.4-14.7 37.6-.4 4.5.3 9.2 1.1 13.6 1.4 6.7 5.7 8.9 12.1 7 2.2-.7 4.2-1.8 6-3.3 11.1-7.9 19.2-29.9 19.2-29.9l-4-1.9zm133.3 36.8l-2.2 16.7c-1.5 11.5-2.1 20.6-1 32.3.1.8.1 4.9 1.9 5.1 2.1.4 3.1-2.5 3.8-3.8 2.4-4.5 4.4-8.6 6.4-13.1 2.2-5.1 4-10.6 6.1-15.7 3.8-9 6.5-18.5 8.3-28.1 1.1-5.7 2.6-11.1 2.9-18.4-12.2-3.5-19.9-9.3-19.9-9.3s-5.2 25.6-6.3 34.3zm-294.6 27.6c-.6.3-3.8 3.9-4.2 4.3-9.9 10-14.9 21.7-16.1 35.6-.3 3.3.4 6.4 1.8 9.5 1.7 3.3 6.8 5 9.6 4.3 3.6-1.1 6.3-2.9 8.3-6.3 3.3-5.1 6-12 6.3-18.2 1.1-15.5-5.7-29.2-5.7-29.2zm311.3-103s8.1-6.3 8.2-6.4c8.6-7.8 14.2-15.4 20.7-25 7.1-12.1 15.4-26.7 19.9-40.1.4-1.1 2.9-7.7-.3-9.3-3.5-1.5-7.6 5.3-8.5 6.4-1.4 1.8-6.3 8.6-7.5 10.4-3.5 5.4-8.1 12-11.1 17.5-6.4 11.8-6 10.4-12 22.4-3.6 7.4-5 10.7-7.2 15.9-2.6 7-2.2 8.2-2.2 8.2zm-139.7 22.9c1.4-2.9 1.5-6.5 1.1-9.6-.1-1-.4-2.1-1-2.9-1.1-2.2-5.4-2.2-7.2-.4-2.2 2.4-2.4 5.1-1.3 8.2 1.1 2.7 4.5 5.2 8.4 4.7zm79.8 69.8c2.6-.3 4.4-.3 6.1.1 2.9.7 4.7 4.7 4.6 7.8 0 1.8-1.5 3.8-3.2 4.5-3.2 1.5-6.3 2.8-9.9 3.9-13.9 3.6-26.8 6.3-40.7 9.6-8.5 2.1-17 4.5-25.4 7-16.1 4.7-32.1 9.5-48.1 14.3-8.5 2.5-16.7 5.4-25 8.2-2.5.8-4.2 1.7-12 3.9-8.8 2.8-16.3 5.8-25.3 9.2-16 7.2-32.1 14.2-47.8 22.1-14 7.1-27.7 14.7-40.9 23.2-2.6 1.7-5.6 3.1-8.3 4.3-2.2 1-4.4.8-6.5-.7-1.1-.8-1.9-2.8-1.3-3.8 1.1-1.5 2.6-2.5 4-3.6 4.4-3.5 9-6.7 13.6-10 8.5-6.3 17.7-11.1 26.7-16.4 6.5-3.8 13.1-7.5 19.7-11 3.6-1.9 7.5-3.8 11.3-5.6 11.1-5.3 22.2-10.7 33.5-15.6 15.2-6.7 30.7-11.7 46.6-16.6 7.9-2.5 15.4-5.3 23.2-7.8 12.7-4 25.2-7.5 37.8-10.3 5.6-1.3 10.6-3.1 16-4.3l35.9-8.9c3.1-.7 6.1-1.7 9.2-2.2 2.3-.9 4.5-1.2 6.2-1.3z"/></svg>